<svg width="50" height="51" viewBox="0 0 50 51" fill="none" xmlns="http://www.w3.org/2000/svg">
<path d="M22.844 43.6881C34.3559 43.6881 43.6881 34.3559 43.6881 22.844C43.6881 11.3322 34.3559 2 22.844 2C11.3322 2 2 11.3322 2 22.844C2 34.3559 11.3322 43.6881 22.844 43.6881Z" fill="url(#paint0_linear_114_700)"/>
<path d="M37.7824 25.79C37.6852 25.3175 37.6296 24.8311 37.4767 24.3726C36.8514 22.5105 35.6146 21.1487 33.9471 20.1621C31.7654 18.8697 29.4031 18.4806 26.9157 18.8836C24.6924 19.2449 22.7608 20.2176 21.2461 21.9408C19.1895 24.2614 18.8838 27.527 20.5791 30.1255C22.2606 32.7102 24.7618 33.8913 27.7495 34.2109C29.1669 34.3638 30.5426 34.1415 31.9183 33.7802C32.0434 33.7524 32.2101 33.7524 32.3213 33.808C33.0022 34.1415 33.6692 34.5028 34.3362 34.8502C34.5863 34.9752 34.8365 35.1142 35.1283 35.267C35.1005 35.1698 35.0866 35.1281 35.0727 35.0864C34.8365 34.336 34.6002 33.5856 34.3501 32.8352C34.2945 32.6824 34.3084 32.599 34.4474 32.5017C34.6419 32.3767 34.8087 32.2377 34.9893 32.0849C36.24 31.0704 37.1571 29.8198 37.5879 28.2634C37.6991 27.8605 37.7546 27.4436 37.838 27.0267V25.9011C37.838 25.9011 37.8102 25.8038 37.7963 25.7483L37.7824 25.79ZM25.8874 25.2202C25.2065 25.2202 24.6646 24.6644 24.6646 23.9974C24.6646 23.3304 25.2204 22.7745 25.8874 22.7745C26.5544 22.7745 27.1103 23.3304 27.1103 23.9974C27.1103 24.6644 26.5544 25.2202 25.8874 25.2202ZM31.8766 25.2202C31.1957 25.2202 30.6538 24.6644 30.6538 23.9974C30.6538 23.3304 31.2096 22.7745 31.8766 22.7745C32.5436 22.7745 33.0995 23.3304 33.0995 23.9974C33.0995 24.6644 32.5436 25.2202 31.8766 25.2202Z" fill="white"/>
<path d="M19.0923 24.9006C19.5508 22.8579 20.7459 21.3015 22.4134 20.1065C24.4144 18.6752 26.6795 18.1193 29.1113 18.161C29.2642 18.161 29.417 18.161 29.5699 18.161C29.5699 18.1332 29.5699 18.1054 29.5699 18.0777C29.5143 17.8692 29.4726 17.6747 29.417 17.4662C28.5833 14.826 26.8185 12.95 24.4005 11.7272C21.4268 10.2264 18.3141 10.018 15.1319 10.9629C12.6306 11.7133 10.574 13.1168 9.1566 15.3401C8.08661 17.0216 7.65583 18.8697 7.96154 20.8569C8.25336 22.7884 9.1705 24.4003 10.5601 25.7344C11.0604 26.2068 11.6023 26.6376 12.1442 27.0962C11.8107 28.0967 11.4633 29.1389 11.0881 30.2367C11.2549 30.1533 11.3522 30.0977 11.4494 30.056C12.4639 29.5141 13.4922 28.9721 14.4927 28.4302C14.6733 28.3329 14.8262 28.319 15.0207 28.3746C16.2297 28.7498 17.4664 28.9305 18.731 28.9582C18.9116 28.9582 19.0923 28.9582 19.3146 28.9582C19.2729 28.8193 19.2451 28.722 19.2173 28.6247C18.856 27.388 18.8004 26.1373 19.0784 24.8867L19.0923 24.9006ZM22.5524 14.8955C23.4 14.8955 24.0948 15.5903 24.0948 16.4379C24.0948 17.2856 23.4 17.9804 22.5524 17.9804C21.7047 17.9804 21.0099 17.2856 21.0099 16.4379C21.0099 15.5903 21.7047 14.8955 22.5524 14.8955ZM15.0485 17.9804C14.2009 17.9804 13.5061 17.2856 13.5061 16.4379C13.5061 15.5903 14.2009 14.8955 15.0485 14.8955C15.8962 14.8955 16.591 15.5903 16.591 16.4379C16.591 17.2856 15.8962 17.9804 15.0485 17.9804Z" fill="white"/>
<path d="M43.7713 32.7798C45.5222 32.7798 47.1203 32.7798 48.7322 32.7798C50.1357 32.7798 50.2886 33.0716 49.6077 34.2805C46.7868 39.2136 43.9381 44.1467 41.1589 49.1076C40.6725 49.983 40.0889 50.1776 39.1162 49.8997C39.6164 46.3145 40.1306 42.7293 40.6447 39.033C38.9216 39.033 37.2958 39.033 35.6561 39.033C34.2526 39.033 34.0997 38.8245 34.7806 37.6295C37.5876 32.6825 40.4224 27.7494 43.1877 22.7746C43.688 21.8853 44.2577 21.6074 45.2999 21.9131C44.7996 25.4704 44.2994 29.0556 43.7713 32.7798V32.7798Z" fill="#DDB11E"/>
<defs>
<linearGradient id="paint0_linear_114_700" x1="22.844" y1="41.1868" x2="22.844" y2="-0.501286" gradientUnits="userSpaceOnUse">
<stop stop-color="#00C15B"/>
<stop offset="0.63" stop-color="#00D277"/>
<stop offset="1" stop-color="#00DC80"/>
</linearGradient>
</defs>
</svg>
