<svg width="19" height="20" viewBox="0 0 19 20" fill="none" xmlns="http://www.w3.org/2000/svg">
<g clip-path="url(#clip0_5184_332)">
<path d="M7.00021 15.2379H4V13.3332H7.29001C7.10135 13.9366 7.00021 14.5762 7.00021 15.2379Z" fill="#828282"/>
<path d="M7.28996 17.1427H1.99997V1.90474H9.00013V6.66682H14.0003V8.57156C14.6952 8.57156 15.3667 8.66789 16.0003 8.84757V5.71422L9.99987 0H1.99997C1.45002 0 0.979321 0.18663 0.587398 0.559428C0.195962 0.932688 0 1.38097 0 1.90474V17.1427C0 17.6664 0.195962 18.1147 0.587398 18.488C0.978835 18.8612 1.45002 19.0474 1.99997 19.0474H8.2547C7.8336 18.4722 7.50489 17.8308 7.28996 17.1427Z" fill="#828282"/>
<path d="M10.3923 9.52368H4V11.4284H8.25475C8.81783 10.6597 9.54673 10.009 10.3923 9.52368Z" fill="#828282"/>
<path d="M17.5375 11.8688C16.5625 10.9403 15.3833 10.4758 13.9999 10.4758C12.6165 10.4758 11.4374 10.9403 10.4624 11.8688C9.48747 12.7974 8.99976 13.9204 8.99976 15.2379C8.99976 16.5554 9.48747 17.6785 10.4624 18.607C11.4374 19.5355 12.6165 20 13.9999 20C15.3833 20 16.5625 19.5355 17.5375 18.607C18.5124 17.6785 19.0001 16.5554 19.0001 15.2379C19.0001 13.9204 18.5124 12.7974 17.5375 11.8688ZM13.7301 13.1146C13.7485 12.8377 13.9756 12.6469 14.2635 12.6478C14.5596 12.6487 14.7862 12.8483 14.7979 13.1331C14.8096 13.4235 14.5917 13.6133 14.3102 13.6407C14.2956 13.6434 14.28 13.6444 14.2635 13.6439C14.2465 13.6444 14.2309 13.643 14.2163 13.6407C13.9255 13.6124 13.7096 13.4128 13.7296 13.1141L13.7301 13.1146ZM15.838 17.3131C15.838 17.414 15.748 17.4997 15.642 17.4997H12.8728C12.7668 17.4997 12.6768 17.414 12.6768 17.3131V16.8472C12.6768 16.7462 12.7668 16.6606 12.8728 16.6606H13.8015V14.8188H12.8728C12.7668 14.8188 12.6768 14.7331 12.6768 14.6322V14.1635C12.6768 14.0626 12.7668 13.9769 12.8728 13.9769H14.563C14.669 13.9769 14.759 14.0626 14.759 14.1635V16.6606H15.6415C15.7475 16.6606 15.8375 16.7462 15.8375 16.8472V17.3131H15.838Z" fill="#828282"/>
</g>
<defs>
<clipPath id="clip0_5184_332">
<rect width="19" height="20" fill="white"/>
</clipPath>
</defs>
</svg>
