<svg width="50" height="50" viewBox="0 0 50 50" fill="none" xmlns="http://www.w3.org/2000/svg">
<path d="M22.7478 42.4957C34.2066 42.4957 43.4957 33.2066 43.4957 21.7479C43.4957 10.2891 34.2066 1 22.7478 1C11.2891 1 2 10.2891 2 21.7479C2 33.2066 11.2891 42.4957 22.7478 42.4957Z" fill="#EE8D17"/>
<path d="M10.8938 28.0414C10.8938 23.8641 10.8938 19.6869 10.8938 15.5097C10.9491 15.3437 11.0045 15.1777 11.0598 14.984C11.1428 15.0394 11.1981 15.067 11.2534 15.1085C14.5593 17.3078 17.8512 19.5071 21.1571 21.7063C22.2913 22.4533 23.2457 22.4533 24.3661 21.7063C27.6304 19.5347 30.9086 17.3493 34.1729 15.1777C34.2559 15.1224 34.3389 15.067 34.4772 14.984C34.5187 15.2883 34.6017 15.5511 34.6017 15.8001C34.6017 19.7837 34.6017 23.7673 34.6017 27.7509C34.6017 28.7883 33.9101 29.715 32.928 30.0746C32.762 30.13 32.596 30.1853 32.4301 30.2268H13.0654C13.0654 30.2268 12.9548 30.1853 12.8994 30.1715C11.9727 29.9363 11.3503 29.383 11.0321 28.484C10.9768 28.3457 10.9491 28.2073 10.9076 28.0552L10.8938 28.0414Z" fill="white"/>
<path d="M12.1387 13.67C12.2493 13.7392 12.3185 13.7945 12.3876 13.836C15.6105 15.9799 18.8333 18.1377 22.07 20.2817C22.6232 20.6551 22.8584 20.6551 23.4117 20.2817C26.6483 18.1239 29.8712 15.9799 33.1078 13.8222C33.1908 13.7668 33.26 13.7115 33.3568 13.6423C32.9142 13.3795 32.4577 13.2827 31.9874 13.2827C25.8323 13.2827 19.6771 13.2827 13.5219 13.2827C13.4389 13.2827 13.3559 13.2827 13.2867 13.2827C12.8856 13.3242 12.5121 13.4072 12.1387 13.6562V13.67Z" fill="white"/>
<path d="M12.1387 13.67C12.5121 13.4349 12.8856 13.338 13.2867 13.2965C13.3697 13.2965 13.4389 13.2965 13.5219 13.2965C19.6771 13.2965 25.8323 13.2965 31.9874 13.2965C32.4577 13.2965 32.9142 13.3934 33.3568 13.6562C33.26 13.7253 33.1908 13.7807 33.1078 13.836C29.8712 15.9938 26.6483 18.1377 23.4117 20.2955C22.8584 20.6689 22.6232 20.6551 22.07 20.2955C18.8471 18.1515 15.6243 15.9938 12.3876 13.8498C12.3185 13.7945 12.2355 13.753 12.1387 13.6838V13.67Z" fill="white"/>
<path d="M43.8002 32.7719C45.543 32.7719 47.1337 32.7719 48.7382 32.7719C50.1352 32.7719 50.2873 33.0624 49.6096 34.2657C46.8017 39.1761 43.9662 44.0864 41.1998 49.0244C40.7157 49.8958 40.1347 50.0894 39.1665 49.8128C39.6644 46.2442 40.1762 42.6755 40.688 38.9963C38.9728 38.9963 37.3545 38.9963 35.7223 38.9963C34.3253 38.9963 34.1732 38.7888 34.8509 37.5992C37.645 32.6751 40.4667 27.7648 43.2192 22.8129C43.7172 21.9277 44.2843 21.6511 45.3217 21.9554C44.8237 25.4963 44.3258 29.065 43.8002 32.7719V32.7719Z" fill="#DDB11E"/>
</svg>
